PathFileType	4	(X/Y/Z)	Patient4_TMGait_0pt6_02_left_01.trc.trc
DataRate	CameraRate	NumFrames	NumMarkers	Units	OrigDataRate	OrigDataStartFrame	OrigNumFrames
88.607594936709	88.607594936709	5	33	mm	88.607594936709	124	       141
Frame#	Time	Sacral			L.Shoulder			Chest			R.Shoulder			Neck			R.ASIS			L.ASIS			R.Thigh.Superior			R.Thigh.Lateral			R.Thigh.Inferior			R.Patella			L.Thigh.Superior			L.Thigh.Lateral			L.Thigh.Inferior			L.Patella			L.Shank.Superior			L.Shank.Lateral			L.Shank.Inferior			R.Shank.Superior			R.Shank.Lateral			R.Shank.Inferior			R.Heel			R.Midfoot.Superior			R.Midfoot.Lateral			R.Toe			L.Heel			L.Midfoot.Lateral			L.Midfoot.Superior			L.Toe			L.Elbow			L.Wrist			R.Elbow			R.Wrist			
		X1	Y1	Z1	X2	Y2	Z2	X3	Y3	Z3	X4	Y4	Z4	X5	Y5	Z5	X6	Y6	Z6	X7	Y7	Z7	X8	Y8	Z8	X9	Y9	Z9	X10	Y10	Z10	X11	Y11	Z11	X12	Y12	Z12	X13	Y13	Z13	X14	Y14	Z14	X15	Y15	Z15	X16	Y16	Z16	X17	Y17	Z17	X18	Y18	Z18	X19	Y19	Z19	X20	Y20	Z20	X21	Y21	Z21	X22	Y22	Z22	X23	Y23	Z23	X24	Y24	Z24	X25	Y25	Z25	X26	Y26	Z26	X27	Y27	Z27	X28	Y28	Z28	X29	Y29	Z29	X30	Y30	Z30	X31	Y31	Z31	X32	Y32	Z32	X33	Y33	Z33	

124	2.558142857143	714.225595144244	1011.013858550577	527.774019921203	877.201177171835	1424.160453117519	317.304662790112	1004.031634901725	1351.979149641277	458.847089260292	956.294309817492	1435.051198017736	640.521218328631	887.246047003203	1486.868595666098	469.153011887212	945.978010177520	932.769696854535	615.998805807125	902.376539038846	953.557680161069	345.316654173495	944.297854503316	720.076352726347	592.659164695693	846.719963787949	628.842237481062	663.478525882955	902.518807593239	562.486512653328	580.227978514738	884.139322096735	477.254872617828	588.704982366938	976.702641071902	767.898906271141	377.278248398868	919.969877346770	639.102152254684	308.558738665318	1023.982800925059	581.358330643595	367.901163006941	1047.492155712749	516.003579856609	367.036610761715	1032.990428299248	442.792964702950	358.168566682357	966.638588282206	310.124840681690	316.285857633562	1058.306752208928	215.483631156819	371.443874166781	845.903277634014	392.585311908686	600.171464225767	761.835380701992	300.601511504375	664.796641309235	790.535361619300	199.967991211401	604.508706328580	641.317230508800	42.150840530398	574.338403064109	809.459215473949	96.100022193093	618.380869168264	719.236193079350	35.643487002834	653.764872367442	927.553819571732	44.302090589784	657.172792905308	981.782937262018	37.296715499171	420.025394030049	1050.700192990604	42.125693321474	335.796880977386	1120.702197114439	119.888864589566	352.192170090418	1253.317304557274	91.905649197761	319.075814811180	750.831151197145	1088.969822532690	220.989207725989	719.280617277696	832.065853639048	220.685350981387	1091.775708934286	1129.672873654715	761.573867832083	1302.132735894261	1225.678247968442	671.251909839496	
125	2.569428571429	715.809200162735	1009.242206095563	525.314090036499	877.019199431383	1422.879161039621	314.877966330867	1004.020525627614	1351.304368493794	456.528630958141	955.605194458324	1434.076538578566	638.146099210797	886.743811405974	1485.637502370520	466.705293012391	947.672808292674	931.532815603035	613.905458523754	904.240720069600	951.906227978044	343.276417292144	944.952556670375	718.408523050719	590.949131392238	846.593904516815	627.491830011007	661.740032652191	902.282001742822	560.595628961476	578.805542143857	883.142013081735	474.955991558187	587.208619837195	978.396075064501	765.300282431272	374.283427311510	918.357880964385	636.242292680315	308.065281433155	1023.233968666594	578.429066344079	366.014120379613	1044.932633490692	512.358846001362	366.457764548826	1030.408776038782	439.321812071590	357.896766440609	962.832774243578	307.060512858837	316.932027273963	1053.845011284624	212.007994502150	372.359493421083	843.570540831782	390.919429861807	598.953903701444	758.235060683269	300.337266409222	664.091770647952	785.287316515331	199.132327145705	604.042478903735	634.429072638060	42.078377963852	574.443158313650	802.665372627115	95.964435284883	618.273428240492	712.378781326882	35.485721135789	653.791493497803	920.761390013778	44.122551973117	657.230123545964	974.501887603488	36.787084933044	421.876357796704	1043.113406001716	39.905515896004	337.173450458575	1115.656705866402	114.972630270804	353.854540510110	1247.355575115116	82.619332303773	320.002865486416	751.629088651545	1087.735424728023	217.737484027182	720.851548382842	830.686874374260	216.914665127600	1092.588366720550	1128.954188849964	758.155710415498	1299.341850744381	1230.487845550269	666.486045888038	
126	2.580714285714	717.398604469903	1007.472837396347	522.800660362594	876.875225864230	1421.574090852521	312.348449385245	1004.020027025262	1350.695887264908	454.172163961995	954.846332521485	1433.118054840426	635.757801308791	886.253343644381	1484.442183703072	464.186020789120	949.403433191086	930.259093892354	611.739515889194	906.190718847812	950.393538624878	341.187292303473	945.935229281096	716.762686839986	589.173242789424	846.852397627752	626.068926742733	659.843514073480	902.546250381962	558.661624156806	577.254734311112	882.762989368284	472.432117404558	585.652186142545	980.264919256117	762.970409657910	371.277692063359	917.400489045362	633.864320060700	307.221699384836	1022.936903803381	575.928336507449	364.179989632400	1042.915674307329	509.167537699674	365.800384461246	1028.374628108832	436.240533640681	357.471986567153	959.710858353520	304.443936984070	316.976906554508	1049.723551733653	208.856048831690	372.989469583785	841.634640870085	389.170319814883	597.656516992857	754.901775749859	300.149707817697	663.295061295425	780.215873621397	198.340417445611	603.557495698726	627.541222331704	42.205829442026	574.567883740203	795.965359876423	95.854410149443	618.187998485869	705.544826802398	35.424198432312	653.819795575016	914.009883411387	43.846296526848	657.312679994706	967.113293429897	36.536238104910	423.103253344754	1035.656151704099	38.057566616637	338.124618661077	1110.705512695756	110.408769555344	355.390372975791	1241.540446312700	73.698601132206	321.186529842884	752.824210599494	1086.287860266412	214.406936833587	723.370032309030	829.010970289177	212.976729209447	1092.774664852101	1127.782109117121	754.772475624308	1296.305975466962	1234.030619009723	661.803942636153	
127	2.592000000000	718.928761530641	1005.797647937394	520.267338235415	876.771960860647	1420.312964889226	309.746334561805	1004.032689200449	1350.185412284780	451.793261165376	954.074461205474	1432.235709534347	633.368009682621	885.810389348553	1483.351406382304	461.618661651153	951.098960414940	929.006651772003	609.483047784849	908.126394169835	949.116547880061	339.027273379279	947.234140498738	715.209365777987	587.289652193984	847.560626401039	624.610048847014	657.776986072303	903.385776774006	556.747113496378	575.538554777182	883.122154518974	469.720687939839	584.043267775951	982.216471628930	761.073143218307	368.340161760708	917.198855505056	632.113934839766	305.975344661480	1023.103975415079	574.003000684285	362.402789812614	1041.524471173678	506.591479968776	364.998607050350	1026.954333150835	433.673108376471	356.848273434068	957.338249791234	302.388728093998	316.404627919652	1046.016685304212	206.165334705383	373.307627315612	840.190869518741	387.384867925154	596.280177903058	751.916352179478	300.109801769089	662.387955831720	775.399970502221	197.663394940262	603.046910236014	620.688892367763	42.681814838753	574.712714816205	789.420533618351	95.801209030932	618.127426856163	698.761848322355	35.556546045147	653.845322770247	907.315669827073	43.458937981999	657.418326369142	959.878339852865	36.506175021628	423.775646655888	1028.523420445707	36.639704768965	338.676811788391	1105.868706584344	106.453127026375	356.708008231878	1235.925106991949	65.732116808639	322.453417166529	754.409900901380	1084.693556356607	211.049113593926	726.797797052683	827.118765590676	208.905228250303	1092.292006013556	1126.176791362419	751.455921807791	1293.074457538221	1236.288257829668	657.212366623956	
128	2.603285714286	720.342760162160	1004.304282411428	517.736297174592	876.701229873979	1419.172011886144	307.108026319133	1004.053141175579	1349.808059923157	449.408980987935	953.337721495266	1431.493772878069	630.986752686508	885.437909612173	1482.434958983891	459.029390471948	952.690301869161	927.848826931993	607.119874047322	909.957093958821	948.157281759792	336.770417376980	948.827367442369	713.832134259271	585.251377775283	848.783749217053	623.163524425401	655.541406874962	904.877333905188	554.929236775192	573.635735689109	884.335192319585	466.883726987166	582.406892526406	984.180784764040	759.746841791625	365.536671625870	917.781854382327	631.070008946496	304.328603237613	1023.708670819571	572.729650451324	360.670872051669	1040.774383816988	504.704648192958	364.013027690230	1026.129128649657	431.671912693932	356.019670217666	955.651857058546	300.951700530558	315.267592597302	1042.671406176363	204.003462092458	373.331773983809	839.346473141602	385.624677653734	594.839666655547	749.374203263949	300.302488514548	661.362449606032	770.933400143763	197.188310376460	602.509552200697	613.925805632105	43.687002170404	574.872461743652	783.105251104790	95.846307485977	618.095091304672	692.067458397516	36.005519658434	653.862067762226	900.694786188210	42.952173350068	657.541334783605	952.913622958043	36.639096831149	423.998834952867	1021.761338468673	35.655091939455	338.886639550546	1101.062322505276	103.261246493511	357.748026314312	1230.450948554903	59.132738123477	323.642159724655	756.381985405357	1083.028958704974	207.713830916703	731.105073807068	825.107464105765	204.738677918087	1091.088567496578	1124.185255591181	748.232341043814	1289.684166445519	1237.235800961882	652.718775199236	
